<svg xmlns="http://www.w3.org/2000/svg" xmlns:xlink="http://www.w3.org/1999/xlink" contentStyleType="text/css" data-diagram-type="CLASS" height="384px" preserveAspectRatio="none" style="width:684px;height:384px;background:#FFFFFF;" version="1.1" viewBox="0 0 684 384" width="684px" zoomAndPan="magnify"><defs/><g><!--class User--><g id="elem_User"><rect codeLine="13" fill="#F1F1F1" height="146.9297" id="User" rx="2.5" ry="2.5" style="stroke:#181818;stroke-width:0.5;" width="299.123" x="7" y="7"/><ellipse cx="137.1289" cy="23" fill="#ADD1B2" rx="11" ry="11" style="stroke:#181818;stroke-width:1;"/><path d="M139.6021,29.1431 Q139.021,29.4419 138.3818,29.5913 Q137.7427,29.7407 137.0371,29.7407 Q134.5303,29.7407 133.2104,28.0889 Q131.8906,26.437 131.8906,23.3159 Q131.8906,20.1865 133.2104,18.5347 Q134.5303,16.8828 137.0371,16.8828 Q137.7427,16.8828 138.3901,17.0322 Q139.0376,17.1816 139.6021,17.4805 L139.6021,20.2031 Q138.9712,19.6221 138.3777,19.3523 Q137.7842,19.0825 137.1533,19.0825 Q135.8086,19.0825 135.1238,20.1492 Q134.439,21.2158 134.439,23.3159 Q134.439,25.4077 135.1238,26.4744 Q135.8086,27.541 137.1533,27.541 Q137.7842,27.541 138.3777,27.2712 Q138.9712,27.0015 139.6021,26.4204 Z " fill="#000000"/><text fill="#000000" font-family="sans-serif" font-size="14" lengthAdjust="spacing" textLength="30.3652" x="157.6289" y="28.291">User</text><line style="stroke:#181818;stroke-width:0.5;" x1="8" x2="305.123" y1="39" y2="39"/><ellipse cx="18" cy="52.7441" fill="transparent" rx="3" ry="3" style="stroke:#038048;stroke-width:1;"/><text fill="#000000" font-family="sans-serif" font-size="14" lengthAdjust="spacing" textLength="83.6172" x="27" y="56.5352">uid: [u8; 16]</text><ellipse cx="18" cy="69.2324" fill="transparent" rx="3" ry="3" style="stroke:#038048;stroke-width:1;"/><text fill="#000000" font-family="sans-serif" font-size="14" lengthAdjust="spacing" textLength="115.4727" x="27" y="73.0234">username: String</text><ellipse cx="18" cy="85.7207" fill="transparent" rx="3" ry="3" style="stroke:#038048;stroke-width:1;"/><text fill="#000000" font-family="sans-serif" font-size="14" lengthAdjust="spacing" textLength="135.6729" x="27" y="89.5117">displayName: String</text><ellipse cx="18" cy="102.209" fill="transparent" rx="3" ry="3" style="stroke:#038048;stroke-width:1;"/><text fill="#000000" font-family="sans-serif" font-size="14" lengthAdjust="spacing" textLength="111.9658" x="27" y="106">profilePic: String</text><ellipse cx="18" cy="118.6973" fill="transparent" rx="3" ry="3" style="stroke:#038048;stroke-width:1;"/><text fill="#000000" font-family="sans-serif" font-size="14" lengthAdjust="spacing" textLength="114.6592" x="27" y="122.4883">publicKey: String</text><ellipse cx="18" cy="135.1855" fill="transparent" rx="3" ry="3" style="stroke:#038048;stroke-width:1;"/><text fill="#000000" font-family="sans-serif" font-size="14" lengthAdjust="spacing" textLength="273.123" x="27" y="138.9766">channels: List&lt;[u8; 16]&gt; // Channel IDs</text><line style="stroke:#181818;stroke-width:0.5;" x1="8" x2="305.123" y1="145.9297" y2="145.9297"/></g><!--class Channel--><g id="elem_Channel"><rect codeLine="22" fill="#F1F1F1" height="113.9531" id="Channel" rx="2.5" ry="2.5" style="stroke:#181818;stroke-width:0.5;" width="335.9619" x="341.58" y="23.49"/><ellipse cx="477.6459" cy="39.49" fill="#ADD1B2" rx="11" ry="11" style="stroke:#181818;stroke-width:1;"/><path d="M480.1191,45.6331 Q479.538,45.9319 478.8988,46.0813 Q478.2597,46.2307 477.5541,46.2307 Q475.0473,46.2307 473.7275,44.5789 Q472.4076,42.927 472.4076,39.8059 Q472.4076,36.6765 473.7275,35.0247 Q475.0473,33.3728 477.5541,33.3728 Q478.2597,33.3728 478.9071,33.5222 Q479.5546,33.6716 480.1191,33.9705 L480.1191,36.6931 Q479.4882,36.1121 478.8947,35.8423 Q478.3012,35.5725 477.6703,35.5725 Q476.3256,35.5725 475.6408,36.6392 Q474.956,37.7058 474.956,39.8059 Q474.956,41.8977 475.6408,42.9644 Q476.3256,44.031 477.6703,44.031 Q478.3012,44.031 478.8947,43.7612 Q479.4882,43.4915 480.1191,42.9104 Z " fill="#000000"/><text fill="#000000" font-family="sans-serif" font-size="14" lengthAdjust="spacing" textLength="55.3301" x="498.1459" y="44.781">Channel</text><line style="stroke:#181818;stroke-width:0.5;" x1="342.58" x2="676.5419" y1="55.49" y2="55.49"/><ellipse cx="352.58" cy="69.2341" fill="transparent" rx="3" ry="3" style="stroke:#038048;stroke-width:1;"/><text fill="#000000" font-family="sans-serif" font-size="14" lengthAdjust="spacing" textLength="83.6172" x="361.58" y="73.0252">uid: [u8; 16]</text><ellipse cx="352.58" cy="85.7224" fill="transparent" rx="3" ry="3" style="stroke:#038048;stroke-width:1;"/><text fill="#000000" font-family="sans-serif" font-size="14" lengthAdjust="spacing" textLength="86.1191" x="361.58" y="89.5134">name: String</text><ellipse cx="352.58" cy="102.2107" fill="transparent" rx="3" ry="3" style="stroke:#038048;stroke-width:1;"/><text fill="#000000" font-family="sans-serif" font-size="14" lengthAdjust="spacing" textLength="148.7842" x="361.58" y="106.0017">members: List&lt;User&gt;</text><ellipse cx="352.58" cy="118.699" fill="transparent" rx="3" ry="3" style="stroke:#038048;stroke-width:1;"/><text fill="#000000" font-family="sans-serif" font-size="14" lengthAdjust="spacing" textLength="309.9619" x="361.58" y="122.49">messages: List&lt;u64&gt; // Message Snowflakes</text><line style="stroke:#181818;stroke-width:0.5;" x1="342.58" x2="676.5419" y1="129.4431" y2="129.4431"/></g><!--class Message--><g id="elem_Message"><rect codeLine="29" fill="#F1F1F1" height="163.418" id="Message" rx="2.5" ry="2.5" style="stroke:#181818;stroke-width:0.5;" width="259.6455" x="26.74" y="213.93"/><ellipse cx="123.1165" cy="229.93" fill="#ADD1B2" rx="11" ry="11" style="stroke:#181818;stroke-width:1;"/><path d="M125.5896,236.0731 Q125.0086,236.3719 124.3694,236.5213 Q123.7302,236.6707 123.0247,236.6707 Q120.5178,236.6707 119.198,235.0189 Q117.8782,233.367 117.8782,230.2459 Q117.8782,227.1165 119.198,225.4647 Q120.5178,223.8128 123.0247,223.8128 Q123.7302,223.8128 124.3777,223.9622 Q125.0252,224.1116 125.5896,224.4105 L125.5896,227.1331 Q124.9588,226.5521 124.3652,226.2823 Q123.7717,226.0125 123.1409,226.0125 Q121.7962,226.0125 121.1113,227.0792 Q120.4265,228.1458 120.4265,230.2459 Q120.4265,232.3377 121.1113,233.4044 Q121.7962,234.471 123.1409,234.471 Q123.7717,234.471 124.3652,234.2012 Q124.9588,233.9315 125.5896,233.3504 Z " fill="#000000"/><text fill="#000000" font-family="sans-serif" font-size="14" lengthAdjust="spacing" textLength="58.3926" x="143.6165" y="235.221">Message</text><line style="stroke:#181818;stroke-width:0.5;" x1="27.74" x2="285.3855" y1="245.93" y2="245.93"/><ellipse cx="37.74" cy="259.6741" fill="transparent" rx="3" ry="3" style="stroke:#038048;stroke-width:1;"/><text fill="#000000" font-family="sans-serif" font-size="14" lengthAdjust="spacing" textLength="103.373" x="46.74" y="263.4652">snowflake: u64</text><ellipse cx="37.74" cy="276.1624" fill="transparent" rx="3" ry="3" style="stroke:#038048;stroke-width:1;"/><text fill="#000000" font-family="sans-serif" font-size="14" lengthAdjust="spacing" textLength="120.8799" x="46.74" y="279.9534">senderId: [u8; 16]</text><ellipse cx="37.74" cy="292.6507" fill="transparent" rx="3" ry="3" style="stroke:#038048;stroke-width:1;"/><text fill="#000000" font-family="sans-serif" font-size="14" lengthAdjust="spacing" textLength="127.7295" x="46.74" y="296.4417">channelId: [u8; 16]</text><ellipse cx="37.74" cy="309.139" fill="transparent" rx="3" ry="3" style="stroke:#038048;stroke-width:1;"/><text fill="#000000" font-family="sans-serif" font-size="14" lengthAdjust="spacing" textLength="139.0566" x="46.74" y="312.93">createdAt: DateTime</text><ellipse cx="37.74" cy="325.6273" fill="transparent" rx="3" ry="3" style="stroke:#038048;stroke-width:1;"/><text fill="#000000" font-family="sans-serif" font-size="14" lengthAdjust="spacing" textLength="149.1123" x="46.74" y="329.4183">modifiedAt: DateTime</text><ellipse cx="37.74" cy="342.1155" fill="transparent" rx="3" ry="3" style="stroke:#038048;stroke-width:1;"/><text fill="#000000" font-family="sans-serif" font-size="14" lengthAdjust="spacing" textLength="233.6455" x="46.74" y="345.9066">readBy: List&lt;[u8; 16]&gt; // User IDs</text><ellipse cx="37.74" cy="358.6038" fill="transparent" rx="3" ry="3" style="stroke:#038048;stroke-width:1;"/><text fill="#000000" font-family="sans-serif" font-size="14" lengthAdjust="spacing" textLength="75.6875" x="46.74" y="362.3948">text: String</text><line style="stroke:#181818;stroke-width:0.5;" x1="27.74" x2="285.3855" y1="369.348" y2="369.348"/></g><!--SRC=[TPB1IyCm6CNl_IlUlOSXo90e0tMNuIR2z2GUikRh_31DHxuKBRB_tTeQR27D9I6_b-IzHm2Wi5e4Bq8UtndYoD6mKNXjhgvniNoRW4xgT4KA- -3P7SVCi9oiRXzdyCdN9LjwuY99cuFbue7Q52pUjNDaHM7B4cwYiHKM2zmF39krz4VEMJyDoIBy3pUNBKSoLewAgWFv-FHlLQi95T57YhXPNlQcTiCszgx-BAt-e8Itg1bxawXNwAuQ0tA6_2Rj_A-UEUf91pAtGM7TBPwved60sd39ixWxQ-xQLE_zfucb3-90Ns7Iu3dx0G00]--></g></svg>