<?xml version="1.0" encoding="UTF-8"?>
<svg id="Layer_1" data-name="Layer 1" xmlns="http://www.w3.org/2000/svg" viewBox="0 0 676.91 160">
  <defs>
    <style>
      .cls-1 {
        fill: #231f20;
      }

      .cls-2 {
        fill: none;
        stroke: #ef4343;
        stroke-miterlimit: 10;
      }

      .cls-3 {
        fill: #82aada;
      }

      .cls-4 {
        fill: #ef4343;
      }

      .cls-5 {
        fill: #fff2d8;
      }
    </style>
  </defs>
  <rect class="cls-5" width="676.91" height="160"/>
  <g>
    <rect class="cls-3" x="15" y="59.13" width="75.24" height="39.82"/>
    <g>
      <path class="cls-1" d="M33.45,67.38l-.78.12,1.91,5.54.19.67h.04l.19-.67,1.9-5.55-.77-.12v-.74h2.69v.74l-.69.09-2.86,7.69h-.99l-2.86-7.69-.68-.09v-.74h2.7v.74Z"/>
      <path class="cls-1" d="M42.25,75.29c-.88,0-1.58-.29-2.11-.88s-.78-1.35-.78-2.29v-.26c0-.9.27-1.65.81-2.25s1.17-.9,1.91-.9c.85,0,1.5.26,1.94.77s.66,1.2.66,2.06v.72h-4.11l-.02.03c.01.61.17,1.11.46,1.5s.71.59,1.25.59c.39,0,.73-.06,1.03-.17s.55-.26.76-.46l.45.75c-.23.22-.53.4-.9.55s-.82.23-1.34.23ZM42.07,69.62c-.39,0-.72.16-.99.49s-.44.74-.5,1.23v.03h2.94v-.15c0-.45-.12-.83-.36-1.14s-.6-.46-1.08-.46Z"/>
      <path class="cls-1" d="M45.8,69.57v-.74h1.99l.11.92c.18-.32.4-.58.67-.76s.57-.28.91-.28c.09,0,.18,0,.28.02s.17.03.22.04l-.15,1.07-.66-.04c-.3,0-.56.07-.77.21s-.37.34-.48.6v3.64l.96.16v.74h-3.06v-.74l.96-.16v-4.53l-.96-.16Z"/>
      <path class="cls-1" d="M55.62,70.82h-.87l-.19-.76c-.14-.13-.32-.24-.53-.32s-.45-.12-.72-.12c-.41,0-.71.09-.91.27s-.3.4-.3.65.09.45.26.59.53.27,1.07.39c.8.17,1.4.41,1.79.7s.59.69.59,1.19c0,.56-.23,1.02-.68,1.37s-1.05.52-1.78.52c-.48,0-.91-.06-1.29-.17s-.72-.27-1.03-.48v-1.45s.86,0,.86,0l.22.85c.13.12.31.21.54.26s.46.08.7.08c.41,0,.73-.08.96-.25s.35-.38.35-.65c0-.25-.1-.46-.29-.63s-.56-.31-1.1-.43c-.77-.17-1.35-.4-1.74-.69s-.59-.68-.59-1.17.22-.96.66-1.32,1.01-.54,1.71-.54c.48,0,.91.06,1.29.19s.7.3.96.52l.06,1.4Z"/>
      <path class="cls-1" d="M56.88,74.43l.96-.16v-4.53l-.96-.16v-.74h2.11v5.44l.96.16v.74h-3.06v-.74ZM58.99,67.21h-1.15v-1.18h1.15v1.18Z"/>
      <path class="cls-1" d="M60.83,71.94c0-.94.25-1.71.76-2.32s1.2-.91,2.07-.91,1.57.3,2.08.91.76,1.38.76,2.32v.13c0,.95-.25,1.72-.76,2.32s-1.2.9-2.07.9-1.57-.3-2.08-.91-.76-1.38-.76-2.32v-.13ZM61.99,72.07c0,.67.14,1.23.42,1.66s.7.66,1.26.66.96-.22,1.25-.66.43-.99.43-1.66v-.13c0-.66-.14-1.22-.43-1.66s-.71-.66-1.26-.66-.97.22-1.25.66-.42.99-.42,1.66v.13Z"/>
      <path class="cls-1" d="M67.39,74.43l.96-.16v-4.53l-.96-.16v-.74h1.99l.08.94c.21-.34.48-.6.79-.78s.68-.28,1.09-.28c.68,0,1.21.2,1.59.6s.56,1.02.56,1.85v3.1l.96.16v.74h-3.06v-.74l.96-.16v-3.08c0-.56-.11-.96-.33-1.19s-.56-.35-1.01-.35c-.33,0-.63.08-.88.24s-.46.38-.61.66v3.72l.96.16v.74h-3.06v-.74Z"/>
      <path class="cls-1" d="M38.33,81.04v.74l-.96.16v7.62h-1.15l-4.1-6.59h-.04v5.68l.96.16v.74h-3.06v-.74l.96-.16v-6.72l-.96-.16v-.74h2.11l4.1,6.58h.04v-5.67l-.96-.16v-.74h3.06Z"/>
      <path class="cls-1" d="M43.75,88.63c-.2.34-.46.6-.77.79s-.68.28-1.09.28c-.69,0-1.22-.22-1.61-.66s-.58-1.13-.58-2.06v-2.83l-.73-.16v-.74h1.88v3.75c0,.68.1,1.14.3,1.39s.51.38.93.38.75-.08,1.02-.25.47-.4.61-.71v-3.66l-.85-.16v-.74h2v5.44l.73.16v.74h-1.76l-.08-.94Z"/>
      <path class="cls-1" d="M46.28,88.83l.96-.16v-4.53l-.96-.16v-.74h1.99l.08.83c.2-.3.46-.53.79-.7s.69-.25,1.11-.25.78.1,1.09.29.53.49.68.88c.2-.36.46-.64.79-.86s.71-.32,1.15-.32c.65,0,1.16.22,1.54.67s.56,1.11.56,2v2.89l.96.16v.74h-3.07v-.74l.96-.16v-2.9c0-.62-.11-1.07-.32-1.33s-.53-.39-.96-.39-.73.14-.97.42-.39.64-.42,1.07v3.12l.96.16v.74h-3.06v-.74l.96-.16v-2.9c0-.59-.11-1.03-.33-1.3s-.54-.41-.96-.41c-.35,0-.64.07-.87.22s-.4.35-.52.61v3.79l.96.16v.74h-3.06v-.74Z"/>
      <path class="cls-1" d="M63.64,86.64c0,.91-.22,1.65-.66,2.21s-1.04.84-1.81.84c-.41,0-.77-.08-1.08-.24s-.56-.39-.76-.7l-.11.81h-1v-8.23l-.96-.16v-.74h2.11v3.55c.2-.28.45-.5.74-.64s.64-.22,1.03-.22c.78,0,1.39.31,1.83.94s.66,1.45.66,2.47v.12ZM62.48,86.52c0-.73-.13-1.32-.4-1.78s-.67-.69-1.22-.69c-.36,0-.66.09-.9.26s-.44.4-.58.69v2.8c.14.29.34.53.59.7s.55.26.91.26c.54,0,.95-.19,1.21-.58s.4-.9.4-1.54v-.12Z"/>
      <path class="cls-1" d="M67.69,89.69c-.88,0-1.58-.29-2.11-.88s-.78-1.35-.78-2.29v-.26c0-.9.27-1.65.81-2.25s1.17-.9,1.91-.9c.85,0,1.5.26,1.94.77s.66,1.2.66,2.06v.72h-4.11l-.02.03c.01.61.17,1.11.46,1.5s.71.59,1.25.59c.39,0,.73-.06,1.03-.17s.55-.26.76-.46l.45.75c-.23.22-.53.4-.9.55s-.82.23-1.34.23ZM67.51,84.02c-.39,0-.72.16-.99.49s-.44.74-.5,1.23v.03h2.94v-.15c0-.45-.12-.83-.36-1.14s-.6-.46-1.08-.46Z"/>
      <path class="cls-1" d="M71.24,83.97v-.74h1.99l.11.92c.18-.32.4-.58.67-.76s.57-.28.91-.28c.09,0,.18,0,.28.02s.17.03.22.04l-.15,1.07-.66-.04c-.3,0-.56.07-.77.21s-.37.34-.48.6v3.64l.96.16v.74h-3.06v-.74l.96-.16v-4.53l-.96-.16Z"/>
    </g>
  </g>
  <g>
    <rect class="cls-3" x="105.24" y="59.13" width="75.24" height="39.82"/>
    <g>
      <path class="cls-1" d="M134.12,68.34h-.03s-2.76,6.83-2.76,6.83h-.77l-2.76-6.83h-.03s.12,3.46.12,3.46v2.47l.96.16v.74h-3.06v-.74l.96-.16v-6.72l-.96-.16v-.74h2.43l2.72,6.93h.04l2.71-6.93h2.44v.74l-.96.16v6.72l.96.16v.74h-3.06v-.74l.96-.16v-2.47l.11-3.46Z"/>
      <path class="cls-1" d="M141.19,75.17c-.04-.17-.06-.33-.08-.46s-.03-.27-.04-.41c-.22.29-.5.52-.83.71s-.69.28-1.07.28c-.66,0-1.16-.16-1.51-.48s-.52-.78-.52-1.36.24-1.07.73-1.39,1.15-.49,2-.49h1.19v-.74c0-.37-.12-.67-.35-.88s-.56-.33-.98-.33c-.29,0-.54.04-.76.11s-.4.18-.54.3l-.12.67h-.89v-1.23c.29-.23.64-.42,1.05-.55s.86-.21,1.34-.21c.72,0,1.3.18,1.75.55s.67.89.67,1.58v3.05c0,.08,0,.16,0,.24s0,.16.01.23l.47.06v.74h-1.51ZM139.33,74.32c.38,0,.73-.09,1.05-.28s.54-.4.68-.66v-1.04h-1.23c-.47,0-.85.11-1.12.33s-.41.48-.41.8c0,.28.09.49.26.64s.43.22.78.22Z"/>
      <path class="cls-1" d="M143.67,72.12c0-1.02.22-1.84.67-2.47s1.06-.94,1.85-.94c.4,0,.75.08,1.05.23s.55.38.76.68l.11-.8h.97v6.26c0,.82-.23,1.47-.69,1.94s-1.11.71-1.95.71c-.3,0-.63-.04-.99-.13s-.67-.2-.94-.34l.3-.9c.21.11.47.21.76.28s.58.11.86.11c.52,0,.89-.14,1.13-.43s.36-.7.36-1.24v-.6c-.21.27-.46.47-.74.6s-.62.21-1,.21c-.78,0-1.39-.28-1.83-.84s-.67-1.3-.67-2.21v-.12ZM144.82,72.24c0,.64.13,1.15.4,1.54s.68.58,1.23.58c.35,0,.64-.08.87-.24s.43-.38.58-.67v-2.92c-.15-.27-.34-.48-.58-.64s-.53-.24-.86-.24c-.55,0-.96.23-1.24.69s-.41,1.05-.41,1.78v.12Z"/>
      <path class="cls-1" d="M150.45,74.43l.96-.16v-4.53l-.96-.16v-.74h2.11v5.44l.96.16v.74h-3.06v-.74ZM152.56,67.21h-1.15v-1.18h1.15v1.18Z"/>
      <path class="cls-1" d="M157.25,74.39c.38,0,.72-.12,1.01-.35s.44-.53.44-.87h1.04v.04c.03.55-.21,1.03-.72,1.46s-1.09.64-1.77.64c-.92,0-1.63-.3-2.11-.9s-.73-1.36-.73-2.27v-.25c0-.9.24-1.66.73-2.26s1.19-.91,2.11-.91c.51,0,.96.08,1.37.25s.74.4,1,.69l.05,1.41h-.92l-.25-1c-.14-.13-.31-.24-.53-.32s-.46-.12-.73-.12c-.61,0-1.04.22-1.3.65s-.39.97-.39,1.6v.25c0,.65.13,1.19.39,1.62s.69.65,1.3.65Z"/>
      <path class="cls-1" d="M128.56,81.04v.74l-.96.16v7.62h-1.15l-4.1-6.59h-.04v5.68l.96.16v.74h-3.06v-.74l.96-.16v-6.72l-.96-.16v-.74h2.11l4.1,6.58h.04v-5.67l-.96-.16v-.74h3.06Z"/>
      <path class="cls-1" d="M133.99,88.63c-.2.34-.46.6-.77.79s-.68.28-1.09.28c-.69,0-1.22-.22-1.61-.66s-.58-1.13-.58-2.06v-2.83l-.73-.16v-.74h1.88v3.75c0,.68.1,1.14.3,1.39s.51.38.93.38.75-.08,1.02-.25.47-.4.61-.71v-3.66l-.85-.16v-.74h2v5.44l.73.16v.74h-1.76l-.08-.94Z"/>
      <path class="cls-1" d="M136.51,88.83l.96-.16v-4.53l-.96-.16v-.74h1.99l.08.83c.2-.3.46-.53.79-.7s.69-.25,1.11-.25.78.1,1.09.29.53.49.68.88c.2-.36.46-.64.79-.86s.71-.32,1.15-.32c.65,0,1.16.22,1.54.67s.56,1.11.56,2v2.89l.96.16v.74h-3.07v-.74l.96-.16v-2.9c0-.62-.11-1.07-.32-1.33s-.53-.39-.96-.39-.73.14-.97.42-.39.64-.42,1.07v3.12l.96.16v.74h-3.06v-.74l.96-.16v-2.9c0-.59-.11-1.03-.33-1.3s-.54-.41-.96-.41c-.35,0-.64.07-.87.22s-.4.35-.52.61v3.79l.96.16v.74h-3.06v-.74Z"/>
      <path class="cls-1" d="M153.88,86.64c0,.91-.22,1.65-.66,2.21s-1.04.84-1.81.84c-.41,0-.77-.08-1.08-.24s-.56-.39-.76-.7l-.11.81h-1v-8.23l-.96-.16v-.74h2.11v3.55c.2-.28.45-.5.74-.64s.64-.22,1.03-.22c.78,0,1.39.31,1.83.94s.66,1.45.66,2.47v.12ZM152.72,86.52c0-.73-.13-1.32-.4-1.78s-.67-.69-1.22-.69c-.36,0-.66.09-.9.26s-.44.4-.58.69v2.8c.14.29.34.53.59.7s.55.26.91.26c.54,0,.95-.19,1.21-.58s.4-.9.4-1.54v-.12Z"/>
      <path class="cls-1" d="M157.92,89.69c-.88,0-1.58-.29-2.11-.88s-.78-1.35-.78-2.29v-.26c0-.9.27-1.65.81-2.25s1.17-.9,1.91-.9c.85,0,1.5.26,1.94.77s.66,1.2.66,2.06v.72h-4.11l-.02.03c.01.61.17,1.11.46,1.5s.71.59,1.25.59c.39,0,.73-.06,1.03-.17s.55-.26.76-.46l.45.75c-.23.22-.53.4-.9.55s-.82.23-1.34.23ZM157.75,84.02c-.39,0-.72.16-.99.49s-.44.74-.5,1.23v.03h2.94v-.15c0-.45-.12-.83-.36-1.14s-.6-.46-1.08-.46Z"/>
      <path class="cls-1" d="M161.48,83.97v-.74h1.99l.11.92c.18-.32.4-.58.67-.76s.57-.28.91-.28c.09,0,.18,0,.28.02s.17.03.22.04l-.15,1.07-.66-.04c-.3,0-.56.07-.77.21s-.37.34-.48.6v3.64l.96.16v.74h-3.06v-.74l.96-.16v-4.53l-.96-.16Z"/>
    </g>
  </g>
  <g>
    <rect class="cls-3" x="195.48" y="59.13" width="75.24" height="39.82"/>
    <rect class="cls-3" x="267.25" y="59.13" width="78.7" height="39.82"/>
  </g>
  <g>
    <path class="cls-1" d="M250.46,78.17c0,1.24-.36,2.27-1.07,3.09s-1.64,1.23-2.77,1.23-2-.41-2.68-1.23-1.03-1.85-1.03-3.09v-.12c0-1.24.34-2.27,1.03-3.09s1.58-1.24,2.68-1.24,2.06.41,2.77,1.24,1.07,1.86,1.07,3.09v.12ZM249.3,78.03c0-.99-.24-1.8-.71-2.43s-1.13-.94-1.97-.94-1.43.31-1.88.94-.68,1.44-.68,2.43v.13c0,1,.23,1.81.68,2.44s1.08.94,1.88.94c.85,0,1.51-.31,1.98-.94s.7-1.44.7-2.44v-.13Z"/>
    <path class="cls-1" d="M251.29,84.06l.96-.16v-6.96l-.96-.16v-.74h1.95l.11.77c.21-.29.47-.51.77-.66s.65-.23,1.05-.23c.79,0,1.4.31,1.83.93s.65,1.45.65,2.47v.12c0,.91-.22,1.65-.66,2.21s-1.04.84-1.81.84c-.39,0-.73-.07-1.03-.2s-.55-.33-.75-.58v2.19l.96.16v.74h-3.06v-.74ZM256.48,79.32c0-.72-.14-1.31-.42-1.78s-.7-.69-1.25-.69c-.33,0-.61.07-.84.22s-.42.35-.57.61v3.09c.14.26.33.46.57.61s.52.21.86.21c.55,0,.96-.2,1.24-.6s.42-.92.42-1.55v-.12Z"/>
    <path class="cls-1" d="M261.59,82.49c-.88,0-1.58-.29-2.11-.88s-.78-1.35-.78-2.29v-.26c0-.9.27-1.65.81-2.25s1.17-.9,1.91-.9c.85,0,1.5.26,1.94.77s.66,1.2.66,2.06v.72h-4.11l-.02.03c.01.61.17,1.11.46,1.5s.71.59,1.25.59c.39,0,.73-.06,1.03-.17s.55-.26.76-.46l.45.75c-.23.22-.53.4-.9.55s-.82.23-1.34.23ZM261.41,76.82c-.39,0-.72.16-.99.49s-.44.74-.5,1.23v.03h2.94v-.15c0-.45-.12-.83-.36-1.14s-.6-.46-1.08-.46Z"/>
    <path class="cls-1" d="M265.15,76.77v-.74h1.99l.11.92c.18-.32.4-.58.67-.76s.57-.28.91-.28c.09,0,.18,0,.28.02s.17.03.22.04l-.15,1.07-.66-.04c-.3,0-.56.07-.77.21s-.37.34-.48.6v3.64l.96.16v.74h-3.06v-.74l.96-.16v-4.53l-.96-.16Z"/>
    <path class="cls-1" d="M274.24,82.37c-.04-.17-.06-.33-.08-.46s-.03-.27-.04-.41c-.22.29-.5.52-.83.71s-.69.28-1.07.28c-.66,0-1.16-.16-1.51-.48s-.52-.78-.52-1.36.24-1.07.73-1.39,1.15-.49,2-.49h1.19v-.74c0-.37-.12-.67-.35-.88s-.56-.33-.98-.33c-.29,0-.54.04-.76.11s-.4.18-.54.3l-.12.67h-.89v-1.23c.29-.23.64-.42,1.05-.55s.86-.21,1.34-.21c.72,0,1.3.18,1.75.55s.67.89.67,1.58v3.05c0,.08,0,.16,0,.24s0,.16.01.23l.47.06v.74h-1.51ZM272.39,81.52c.38,0,.73-.09,1.05-.28s.54-.4.68-.66v-1.04h-1.23c-.47,0-.85.11-1.12.33s-.41.48-.41.8c0,.28.09.49.26.64s.43.22.78.22Z"/>
    <path class="cls-1" d="M278.73,74.5v1.53h1.2v.86h-1.2v3.85c0,.3.06.51.18.63s.29.18.49.18c.1,0,.22,0,.34-.03s.23-.04.32-.06l.16.79c-.11.07-.27.13-.48.17s-.42.07-.63.07c-.47,0-.84-.14-1.12-.42s-.42-.73-.42-1.33v-3.85h-1v-.86h1v-1.53h1.15Z"/>
    <path class="cls-1" d="M281.11,81.63l.96-.16v-4.53l-.96-.16v-.74h2.11v5.44l.96.16v.74h-3.06v-.74ZM283.22,74.41h-1.15v-1.18h1.15v1.18Z"/>
    <path class="cls-1" d="M285.06,79.14c0-.94.25-1.71.76-2.32s1.2-.91,2.07-.91,1.57.3,2.08.91.76,1.38.76,2.32v.13c0,.95-.25,1.72-.76,2.32s-1.2.9-2.07.9-1.57-.3-2.08-.91-.76-1.38-.76-2.32v-.13ZM286.22,79.27c0,.67.14,1.23.42,1.66s.7.66,1.26.66.96-.22,1.25-.66.43-.99.43-1.66v-.13c0-.66-.14-1.22-.43-1.66s-.71-.66-1.26-.66-.97.22-1.25.66-.42.99-.42,1.66v.13Z"/>
    <path class="cls-1" d="M291.62,81.63l.96-.16v-4.53l-.96-.16v-.74h1.99l.08.94c.21-.34.48-.6.79-.78s.68-.28,1.09-.28c.68,0,1.21.2,1.59.6s.56,1.02.56,1.85v3.1l.96.16v.74h-3.06v-.74l.96-.16v-3.08c0-.56-.11-.96-.33-1.19s-.56-.35-1.01-.35c-.33,0-.63.08-.88.24s-.46.38-.61.66v3.72l.96.16v.74h-3.06v-.74Z"/>
  </g>
  <rect class="cls-3" x="360.95" y="59.13" width="75.24" height="39.82"/>
  <rect class="cls-3" x="429.53" y="59.13" width="88.27" height="39.82"/>
  <rect class="cls-3" x="511.43" y="59.13" width="75.24" height="39.82"/>
  <rect class="cls-3" x="569.39" y="59.13" width="92.51" height="39.82"/>
  <g>
    <path class="cls-1" d="M474.91,73.3c.91,0,1.62.23,2.12.7s.76,1.09.76,1.85-.25,1.39-.76,1.86-1.21.7-2.12.7h-1.81v2.52l.96.16v.74h-3.06v-.74l.96-.16v-6.72l-.96-.16v-.74h3.92ZM473.1,77.51h1.81c.58,0,1.01-.16,1.3-.47s.43-.7.43-1.17-.14-.87-.43-1.18-.72-.47-1.3-.47h-1.81v3.3Z"/>
    <path class="cls-1" d="M482.79,81.83c-.04-.17-.06-.33-.08-.46s-.03-.27-.04-.41c-.22.29-.5.52-.83.71s-.69.28-1.07.28c-.66,0-1.16-.16-1.51-.48s-.52-.78-.52-1.36.24-1.07.73-1.39,1.15-.49,2-.49h1.19v-.74c0-.37-.12-.67-.35-.88s-.56-.33-.98-.33c-.29,0-.54.04-.76.11s-.4.18-.54.3l-.12.67h-.89v-1.23c.29-.23.64-.42,1.05-.55s.86-.21,1.34-.21c.72,0,1.3.18,1.75.55s.67.89.67,1.58v3.05c0,.08,0,.16,0,.24s0,.16.01.23l.47.06v.74h-1.51ZM480.93,80.99c.38,0,.73-.09,1.05-.28s.54-.4.68-.66v-1.04h-1.23c-.47,0-.85.11-1.12.33s-.41.48-.41.8c0,.28.09.49.26.64s.43.22.78.22Z"/>
    <path class="cls-1" d="M488.11,81.05c.38,0,.72-.12,1.01-.35s.44-.53.44-.87h1.04v.04c.03.55-.21,1.03-.72,1.46s-1.09.64-1.77.64c-.92,0-1.63-.3-2.11-.9s-.73-1.36-.73-2.27v-.25c0-.9.24-1.66.73-2.26s1.19-.91,2.11-.91c.51,0,.96.08,1.37.25s.74.4,1,.69l.05,1.41h-.92l-.25-1c-.14-.13-.31-.24-.53-.32s-.46-.12-.73-.12c-.61,0-1.04.22-1.3.65s-.39.97-.39,1.6v.25c0,.65.13,1.19.39,1.62s.69.65,1.3.65Z"/>
    <path class="cls-1" d="M491.57,73.44v-.74h2.11v5.3h.74l1.35-1.68-.58-.08v-.74h2.65v.74l-.77.15-1.67,1.99,2.03,2.57.72.14v.74h-2.63v-.74l.59-.08-1.68-2.11h-.76v2.02l.96.16v.74h-3.06v-.74l.96-.16v-7.33l-.96-.16Z"/>
    <path class="cls-1" d="M501.8,81.96c-.88,0-1.58-.29-2.11-.88s-.78-1.35-.78-2.29v-.26c0-.9.27-1.65.81-2.25s1.17-.9,1.91-.9c.85,0,1.5.26,1.94.77s.66,1.2.66,2.06v.72h-4.11l-.02.03c.01.61.17,1.11.46,1.5s.71.59,1.25.59c.39,0,.73-.06,1.03-.17s.55-.26.76-.46l.45.75c-.23.22-.53.4-.9.55s-.82.23-1.34.23ZM501.63,76.29c-.39,0-.72.16-.99.49s-.44.74-.5,1.23v.03h2.94v-.15c0-.45-.12-.83-.36-1.14s-.6-.46-1.08-.46Z"/>
    <path class="cls-1" d="M507.38,73.96v1.53h1.2v.86h-1.2v3.85c0,.3.06.51.18.63s.29.18.49.18c.1,0,.22,0,.34-.03s.23-.04.32-.06l.16.79c-.11.07-.27.13-.48.17s-.42.07-.63.07c-.47,0-.84-.14-1.12-.42s-.42-.73-.42-1.33v-3.85h-1v-.86h1v-1.53h1.15Z"/>
    <path class="cls-1" d="M512.63,81.83v-.74l.96-.16v-6.72l-.96-.16v-.74h3.06v.74l-.96.16v6.72h2.96l.09-.98h.98v1.88h-6.15Z"/>
    <path class="cls-1" d="M522.66,81.96c-.88,0-1.58-.29-2.11-.88s-.78-1.35-.78-2.29v-.26c0-.9.27-1.65.81-2.25s1.17-.9,1.91-.9c.85,0,1.5.26,1.94.77s.66,1.2.66,2.06v.72h-4.11l-.02.03c.01.61.17,1.11.46,1.5s.71.59,1.25.59c.39,0,.73-.06,1.03-.17s.55-.26.76-.46l.45.75c-.23.22-.53.4-.9.55s-.82.23-1.34.23ZM522.48,76.29c-.39,0-.72.16-.99.49s-.44.74-.5,1.23v.03h2.94v-.15c0-.45-.12-.83-.36-1.14s-.6-.46-1.08-.46Z"/>
    <path class="cls-1" d="M526.04,81.1l.96-.16v-4.53l-.96-.16v-.74h1.99l.08.94c.21-.34.48-.6.79-.78s.68-.28,1.09-.28c.68,0,1.21.2,1.59.6s.56,1.02.56,1.85v3.1l.96.16v.74h-3.06v-.74l.96-.16v-3.08c0-.56-.11-.96-.33-1.19s-.56-.35-1.01-.35c-.33,0-.63.08-.88.24s-.46.38-.61.66v3.72l.96.16v.74h-3.06v-.74Z"/>
    <path class="cls-1" d="M533.88,78.78c0-1.02.22-1.84.67-2.47s1.06-.94,1.85-.94c.4,0,.75.08,1.05.23s.55.38.76.68l.11-.8h.97v6.26c0,.82-.23,1.47-.69,1.94s-1.11.71-1.95.71c-.3,0-.63-.04-.99-.13s-.67-.2-.94-.34l.3-.9c.21.11.47.21.76.28s.58.11.86.11c.52,0,.89-.14,1.13-.43s.36-.7.36-1.24v-.6c-.21.27-.46.47-.74.6s-.62.21-1,.21c-.78,0-1.39-.28-1.83-.84s-.67-1.3-.67-2.21v-.12ZM535.04,78.9c0,.64.13,1.15.4,1.54s.68.58,1.23.58c.35,0,.64-.08.87-.24s.43-.38.58-.67v-2.92c-.15-.27-.34-.48-.58-.64s-.53-.24-.86-.24c-.55,0-.96.23-1.24.69s-.41,1.05-.41,1.78v.12Z"/>
    <path class="cls-1" d="M542.68,73.96v1.53h1.2v.86h-1.2v3.85c0,.3.06.51.18.63s.29.18.49.18c.1,0,.22,0,.34-.03s.23-.04.32-.06l.16.79c-.11.07-.27.13-.48.17s-.42.07-.63.07c-.47,0-.84-.14-1.12-.42s-.42-.73-.42-1.33v-3.85h-1v-.86h1v-1.53h1.15Z"/>
    <path class="cls-1" d="M544.9,81.1l.96-.16v-7.33l-.96-.16v-.74h2.11v3.64c.22-.3.49-.54.8-.71s.67-.25,1.05-.25c.68,0,1.21.2,1.58.61s.56,1.03.56,1.88v3.07l.96.16v.74h-3.06v-.74l.96-.16v-3.08c0-.52-.11-.91-.34-1.16s-.56-.38-1-.38c-.32,0-.6.08-.86.23s-.47.35-.64.61v3.78l.96.16v.74h-3.06v-.74Z"/>
  </g>
  <g>
    <line class="cls-2" x1="22.06" y1="50.17" x2="654.85" y2="50.17"/>
    <polygon class="cls-4" points="15 50.17 24.95 54.24 22.59 50.17 24.95 46.11 15 50.17"/>
    <polygon class="cls-4" points="661.91 50.17 651.96 54.24 654.32 50.17 651.96 46.11 661.91 50.17"/>
  </g>
  <rect class="cls-5" x="316.85" y="42.81" width="46.98" height="14.72"/>
  <g>
    <path class="cls-4" d="M325.39,50.63h1.18v.9h-1.18v1.07l.96.16v.74h-3.06v-.74l.96-.16v-1.07h-3.83v-.65l3.76-5.91h1.22v5.66ZM321.64,50.63h2.6v-4.01h-.04s-.12.3-.12.3l-2.45,3.71Z"/>
    <path class="cls-4" d="M336.3,50.57c0,.91-.22,1.65-.66,2.21s-1.04.84-1.81.84c-.41,0-.77-.08-1.08-.24s-.56-.39-.76-.7l-.11.81h-1v-8.23l-.96-.16v-.74h2.11v3.55c.2-.28.45-.5.74-.64s.64-.22,1.03-.22c.78,0,1.39.31,1.83.94s.66,1.45.66,2.47v.12ZM335.14,50.45c0-.73-.13-1.32-.4-1.78s-.67-.69-1.22-.69c-.36,0-.66.09-.9.26s-.44.4-.58.69v2.8c.14.29.34.53.59.7s.55.26.91.26c.54,0,.95-.19,1.21-.58s.4-.9.4-1.54v-.12Z"/>
    <path class="cls-4" d="M343.41,47.9l-.57.09-2.41,6.48c-.16.43-.39.8-.69,1.11s-.71.47-1.21.47c-.09,0-.21-.01-.35-.03s-.26-.04-.33-.06l.12-.91s.05,0,.21.01.26.02.31.02c.25,0,.45-.11.6-.32s.29-.46.4-.74l.28-.66-2.09-5.38-.58-.09v-.74h2.56v.74l-.71.12,1.1,3.13.21.81h.04l1.32-3.94-.72-.12v-.74h2.55v.74Z"/>
    <path class="cls-4" d="M346.21,45.63v1.53h1.2v.86h-1.2v3.85c0,.3.06.51.18.63s.29.18.49.18c.1,0,.22,0,.34-.03s.23-.04.32-.06l.16.79c-.11.07-.27.13-.48.17s-.42.07-.63.07c-.47,0-.84-.14-1.12-.42s-.42-.73-.42-1.33v-3.85h-1v-.86h1v-1.53h1.15Z"/>
    <path class="cls-4" d="M351.48,53.62c-.88,0-1.58-.29-2.11-.88s-.78-1.35-.78-2.29v-.26c0-.9.27-1.65.81-2.25s1.17-.9,1.91-.9c.85,0,1.5.26,1.94.77s.66,1.2.66,2.06v.72h-4.11l-.02.03c.01.61.17,1.11.46,1.5s.71.59,1.25.59c.39,0,.73-.06,1.03-.17s.55-.26.76-.46l.45.75c-.23.22-.53.4-.9.55s-.82.23-1.34.23ZM351.31,47.95c-.39,0-.72.16-.99.49s-.44.74-.5,1.23v.03h2.94v-.15c0-.45-.12-.83-.36-1.14s-.6-.46-1.08-.46Z"/>
    <path class="cls-4" d="M359.89,49.15h-.87l-.19-.76c-.14-.13-.32-.24-.53-.32s-.45-.12-.72-.12c-.41,0-.71.09-.91.27s-.3.4-.3.65.09.45.26.59.53.27,1.07.39c.8.17,1.4.41,1.79.7s.59.69.59,1.19c0,.56-.23,1.02-.68,1.37s-1.05.52-1.78.52c-.48,0-.91-.06-1.29-.17s-.72-.27-1.03-.48v-1.45s.86,0,.86,0l.22.85c.13.12.31.21.54.26s.46.08.7.08c.41,0,.73-.08.96-.25s.35-.38.35-.65c0-.25-.1-.46-.29-.63s-.56-.31-1.1-.43c-.77-.17-1.35-.4-1.74-.69s-.59-.68-.59-1.17.22-.96.66-1.32,1.01-.54,1.71-.54c.48,0,.91.06,1.29.19s.7.3.96.52l.06,1.4Z"/>
  </g>
  <g>
    <line class="cls-2" x1="202.54" y1="107.91" x2="338.89" y2="107.91"/>
    <polygon class="cls-4" points="195.48 107.91 205.43 111.98 203.06 107.91 205.43 103.85 195.48 107.91"/>
    <polygon class="cls-4" points="345.95 107.91 336 111.98 338.36 107.91 336 103.85 345.95 107.91"/>
  </g>
  <g>
    <line class="cls-2" x1="22.06" y1="123.96" x2="173.42" y2="123.96"/>
    <polygon class="cls-4" points="15 123.96 24.95 128.03 22.59 123.96 24.95 119.9 15 123.96"/>
    <polygon class="cls-4" points="180.48 123.96 170.53 128.03 172.89 123.96 170.53 119.9 180.48 123.96"/>
  </g>
  <g>
    <line class="cls-2" x1="368.01" y1="107.91" x2="654.85" y2="107.91"/>
    <polygon class="cls-4" points="360.95 107.91 370.9 111.98 368.54 107.91 370.9 103.85 360.95 107.91"/>
    <polygon class="cls-4" points="661.91 107.91 651.96 111.98 654.32 107.91 651.96 103.85 661.91 107.91"/>
  </g>
  <g>
    <line class="cls-2" x1="22.06" y1="108.91" x2="83.18" y2="108.91"/>
    <polygon class="cls-4" points="15 108.91 24.95 112.98 22.59 108.91 24.95 104.85 15 108.91"/>
    <polygon class="cls-4" points="90.24 108.91 80.29 112.98 82.65 108.91 80.29 104.85 90.24 108.91"/>
  </g>
  <rect class="cls-5" x="33.89" y="101.55" width="37.47" height="14.72"/>
  <g>
    <path class="cls-4" d="M42.3,109.37h1.18v.9h-1.18v1.07l.96.16v.74h-3.06v-.74l.96-.16v-1.07h-3.83v-.65l3.76-5.91h1.22v5.66ZM38.55,109.37h2.6v-4.01h-.04s-.12.3-.12.3l-2.45,3.71Z"/>
    <path class="cls-4" d="M53.21,109.31c0,.91-.22,1.65-.66,2.21s-1.04.84-1.81.84c-.41,0-.77-.08-1.08-.24s-.56-.39-.76-.7l-.11.81h-1v-8.23l-.96-.16v-.74h2.11v3.55c.2-.28.45-.5.74-.64s.64-.22,1.03-.22c.78,0,1.39.31,1.83.94s.66,1.45.66,2.47v.12ZM52.05,109.19c0-.73-.13-1.32-.4-1.78s-.67-.69-1.22-.69c-.36,0-.66.09-.9.26s-.44.4-.58.69v2.8c.14.29.34.53.59.7s.55.26.91.26c.54,0,.95-.19,1.21-.58s.4-.9.4-1.54v-.12Z"/>
    <path class="cls-4" d="M54.36,111.5l.96-.16v-4.53l-.96-.16v-.74h2.11v5.44l.96.16v.74h-3.06v-.74ZM56.47,104.27h-1.15v-1.18h1.15v1.18Z"/>
    <path class="cls-4" d="M60.32,104.37v1.53h1.2v.86h-1.2v3.85c0,.3.06.51.18.63s.29.18.49.18c.1,0,.22,0,.34-.03s.23-.04.32-.06l.16.79c-.11.07-.27.13-.48.17s-.42.07-.63.07c-.47,0-.84-.14-1.12-.42s-.42-.73-.42-1.33v-3.85h-1v-.86h1v-1.53h1.15Z"/>
    <path class="cls-4" d="M67.55,107.89h-.87l-.19-.76c-.14-.13-.32-.24-.53-.32s-.45-.12-.72-.12c-.41,0-.71.09-.91.27s-.3.4-.3.65.09.45.26.59.53.27,1.07.39c.8.17,1.4.41,1.79.7s.59.69.59,1.19c0,.56-.23,1.02-.68,1.37s-1.05.52-1.78.52c-.48,0-.91-.06-1.29-.17s-.72-.27-1.03-.48v-1.45s.86,0,.86,0l.22.85c.13.12.31.21.54.26s.46.08.7.08c.41,0,.73-.08.96-.25s.35-.38.35-.65c0-.25-.1-.46-.29-.63s-.56-.31-1.1-.43c-.77-.17-1.35-.4-1.74-.69s-.59-.68-.59-1.17.22-.96.66-1.32,1.01-.54,1.71-.54c.48,0,.91.06,1.29.19s.7.3.96.52l.06,1.4Z"/>
  </g>
  <g>
    <line class="cls-2" x1="112.3" y1="108.91" x2="173.42" y2="108.91"/>
    <polygon class="cls-4" points="105.24 108.91 115.19 112.98 112.83 108.91 115.19 104.85 105.24 108.91"/>
    <polygon class="cls-4" points="180.48 108.91 170.53 112.98 172.89 108.91 170.53 104.85 180.48 108.91"/>
  </g>
  <rect class="cls-5" x="124.12" y="101.55" width="37.47" height="14.72"/>
  <g>
    <path class="cls-4" d="M132.54,109.37h1.18v.9h-1.18v1.07l.96.16v.74h-3.06v-.74l.96-.16v-1.07h-3.83v-.65l3.76-5.91h1.22v5.66ZM128.79,109.37h2.6v-4.01h-.04s-.12.3-.12.3l-2.45,3.71Z"/>
    <path class="cls-4" d="M143.45,109.31c0,.91-.22,1.65-.66,2.21s-1.04.84-1.81.84c-.41,0-.77-.08-1.08-.24s-.56-.39-.76-.7l-.11.81h-1v-8.23l-.96-.16v-.74h2.11v3.55c.2-.28.45-.5.74-.64s.64-.22,1.03-.22c.78,0,1.39.31,1.83.94s.66,1.45.66,2.47v.12ZM142.29,109.19c0-.73-.13-1.32-.4-1.78s-.67-.69-1.22-.69c-.36,0-.66.09-.9.26s-.44.4-.58.69v2.8c.14.29.34.53.59.7s.55.26.91.26c.54,0,.95-.19,1.21-.58s.4-.9.4-1.54v-.12Z"/>
    <path class="cls-4" d="M144.59,111.5l.96-.16v-4.53l-.96-.16v-.74h2.11v5.44l.96.16v.74h-3.06v-.74ZM146.7,104.27h-1.15v-1.18h1.15v1.18Z"/>
    <path class="cls-4" d="M150.55,104.37v1.53h1.2v.86h-1.2v3.85c0,.3.06.51.18.63s.29.18.49.18c.1,0,.22,0,.34-.03s.23-.04.32-.06l.16.79c-.11.07-.27.13-.48.17s-.42.07-.63.07c-.47,0-.84-.14-1.12-.42s-.42-.73-.42-1.33v-3.85h-1v-.86h1v-1.53h1.15Z"/>
    <path class="cls-4" d="M157.78,107.89h-.87l-.19-.76c-.14-.13-.32-.24-.53-.32s-.45-.12-.72-.12c-.41,0-.71.09-.91.27s-.3.4-.3.65.09.45.26.59.53.27,1.07.39c.8.17,1.4.41,1.79.7s.59.69.59,1.19c0,.56-.23,1.02-.68,1.37s-1.05.52-1.78.52c-.48,0-.91-.06-1.29-.17s-.72-.27-1.03-.48v-1.45s.86,0,.86,0l.22.85c.13.12.31.21.54.26s.46.08.7.08c.41,0,.73-.08.96-.25s.35-.38.35-.65c0-.25-.1-.46-.29-.63s-.56-.31-1.1-.43c-.77-.17-1.35-.4-1.74-.69s-.59-.68-.59-1.17.22-.96.66-1.32,1.01-.54,1.71-.54c.48,0,.91.06,1.29.19s.7.3.96.52l.06,1.4Z"/>
  </g>
  <rect class="cls-5" x="247.22" y="101.55" width="46.98" height="14.72"/>
  <g>
    <path class="cls-4" d="M255.07,111.5l1.32-.16v-6.39l-1.34.02v-.72l2.5-.54v7.63l1.31.16v.74h-3.79v-.74Z"/>
    <path class="cls-4" d="M268.85,109.31c0,.91-.22,1.65-.66,2.21s-1.04.84-1.81.84c-.41,0-.77-.08-1.08-.24s-.56-.39-.76-.7l-.11.81h-1v-8.23l-.96-.16v-.74h2.11v3.55c.2-.28.45-.5.74-.64s.64-.22,1.03-.22c.78,0,1.39.31,1.83.94s.66,1.45.66,2.47v.12ZM267.69,109.19c0-.73-.13-1.32-.4-1.78s-.67-.69-1.22-.69c-.36,0-.66.09-.9.26s-.44.4-.58.69v2.8c.14.29.34.53.59.7s.55.26.91.26c.54,0,.95-.19,1.21-.58s.4-.9.4-1.54v-.12Z"/>
    <path class="cls-4" d="M275.96,106.64l-.57.09-2.41,6.48c-.16.43-.39.8-.69,1.11s-.71.47-1.21.47c-.09,0-.21-.01-.35-.03s-.26-.04-.33-.06l.12-.91s.05,0,.21.01.26.02.31.02c.25,0,.45-.11.6-.32s.29-.46.4-.74l.28-.66-2.09-5.38-.58-.09v-.74h2.56v.74l-.71.12,1.1,3.13.21.81h.04l1.32-3.94-.72-.12v-.74h2.55v.74Z"/>
    <path class="cls-4" d="M278.76,104.37v1.53h1.2v.86h-1.2v3.85c0,.3.06.51.18.63s.29.18.49.18c.1,0,.22,0,.34-.03s.23-.04.32-.06l.16.79c-.11.07-.27.13-.48.17s-.42.07-.63.07c-.47,0-.84-.14-1.12-.42s-.42-.73-.42-1.33v-3.85h-1v-.86h1v-1.53h1.15Z"/>
    <path class="cls-4" d="M284.03,112.36c-.88,0-1.58-.29-2.11-.88s-.78-1.35-.78-2.29v-.26c0-.9.27-1.65.81-2.25s1.17-.9,1.91-.9c.85,0,1.5.26,1.94.77s.66,1.2.66,2.06v.72h-4.11l-.02.03c.01.61.17,1.11.46,1.5s.71.59,1.25.59c.39,0,.73-.06,1.03-.17s.55-.26.76-.46l.45.75c-.23.22-.53.4-.9.55s-.82.23-1.34.23ZM283.86,106.69c-.39,0-.72.16-.99.49s-.44.74-.5,1.23v.03h2.94v-.15c0-.45-.12-.83-.36-1.14s-.6-.46-1.08-.46Z"/>
  </g>
  <rect class="cls-5" x="74.25" y="116.6" width="46.98" height="14.72"/>
  <g>
    <path class="cls-4" d="M82.09,126.55l1.32-.16v-6.39l-1.34.02v-.72l2.5-.54v7.63l1.31.16v.74h-3.79v-.74Z"/>
    <path class="cls-4" d="M95.88,124.36c0,.91-.22,1.65-.66,2.21s-1.04.84-1.81.84c-.41,0-.77-.08-1.08-.24s-.56-.39-.76-.7l-.11.81h-1v-8.23l-.96-.16v-.74h2.11v3.55c.2-.28.45-.5.74-.64s.64-.22,1.03-.22c.78,0,1.39.31,1.83.94s.66,1.45.66,2.47v.12ZM94.71,124.24c0-.73-.13-1.32-.4-1.78s-.67-.69-1.22-.69c-.36,0-.66.09-.9.26s-.44.4-.58.69v2.8c.14.29.34.53.59.7s.55.26.91.26c.54,0,.95-.19,1.21-.58s.4-.9.4-1.54v-.12Z"/>
    <path class="cls-4" d="M102.98,121.69l-.57.09-2.41,6.48c-.16.43-.39.8-.69,1.11s-.71.47-1.21.47c-.09,0-.21-.01-.35-.03s-.26-.04-.33-.06l.12-.91s.05,0,.21.01.26.02.31.02c.25,0,.45-.11.6-.32s.29-.46.4-.74l.28-.66-2.09-5.38-.58-.09v-.74h2.56v.74l-.71.12,1.1,3.13.21.81h.04l1.32-3.94-.72-.12v-.74h2.55v.74Z"/>
    <path class="cls-4" d="M105.78,119.42v1.53h1.2v.86h-1.2v3.85c0,.3.06.51.18.63s.29.18.49.18c.1,0,.22,0,.34-.03s.23-.04.32-.06l.16.79c-.11.07-.27.13-.48.17s-.42.07-.63.07c-.47,0-.84-.14-1.12-.42s-.42-.73-.42-1.33v-3.85h-1v-.86h1v-1.53h1.15Z"/>
    <path class="cls-4" d="M111.06,127.41c-.88,0-1.58-.29-2.11-.88s-.78-1.35-.78-2.29v-.26c0-.9.27-1.65.81-2.25s1.17-.9,1.91-.9c.85,0,1.5.26,1.94.77s.66,1.2.66,2.06v.72h-4.11l-.02.03c.01.61.17,1.11.46,1.5s.71.59,1.25.59c.39,0,.73-.06,1.03-.17s.55-.26.76-.46l.45.75c-.23.22-.53.4-.9.55s-.82.23-1.34.23ZM110.88,121.74c-.39,0-.72.16-.99.49s-.44.74-.5,1.23v.03h2.94v-.15c0-.45-.12-.83-.36-1.14s-.6-.46-1.08-.46Z"/>
  </g>
  <rect class="cls-5" x="487.94" y="101.55" width="46.98" height="14.72"/>
  <g>
    <path class="cls-4" d="M491.87,112.24v-.79l2.79-3.11c.5-.56.84-1,1.02-1.33s.27-.66.27-1.01c0-.43-.12-.78-.38-1.08s-.58-.44-.99-.44c-.59,0-1.02.15-1.3.45s-.42.73-.42,1.28h-1.11v-.04c-.03-.73.21-1.35.72-1.85s1.21-.75,2.11-.75c.77,0,1.38.22,1.84.67s.68,1.02.68,1.71c0,.46-.14.93-.41,1.39s-.66.97-1.16,1.51l-2.24,2.44v.03h3.04l.09-.98h.98v1.88h-5.53Z"/>
    <path class="cls-4" d="M507.23,109.31c0,.91-.22,1.65-.66,2.21s-1.04.84-1.81.84c-.41,0-.77-.08-1.08-.24s-.56-.39-.76-.7l-.11.81h-1v-8.23l-.96-.16v-.74h2.11v3.55c.2-.28.45-.5.74-.64s.64-.22,1.03-.22c.78,0,1.39.31,1.83.94s.66,1.45.66,2.47v.12ZM506.07,109.19c0-.73-.13-1.32-.4-1.78s-.67-.69-1.22-.69c-.36,0-.66.09-.9.26s-.44.4-.58.69v2.8c.14.29.34.53.59.7s.55.26.91.26c.54,0,.95-.19,1.21-.58s.4-.9.4-1.54v-.12Z"/>
    <path class="cls-4" d="M514.34,106.64l-.57.09-2.41,6.48c-.16.43-.39.8-.69,1.11s-.71.47-1.21.47c-.09,0-.21-.01-.35-.03s-.26-.04-.33-.06l.12-.91s.05,0,.21.01.26.02.31.02c.25,0,.45-.11.6-.32s.29-.46.4-.74l.28-.66-2.09-5.38-.58-.09v-.74h2.56v.74l-.71.12,1.1,3.13.21.81h.04l1.32-3.94-.72-.12v-.74h2.55v.74Z"/>
    <path class="cls-4" d="M517.14,104.37v1.53h1.2v.86h-1.2v3.85c0,.3.06.51.18.63s.29.18.49.18c.1,0,.22,0,.34-.03s.23-.04.32-.06l.16.79c-.11.07-.27.13-.48.17s-.42.07-.63.07c-.47,0-.84-.14-1.12-.42s-.42-.73-.42-1.33v-3.85h-1v-.86h1v-1.53h1.15Z"/>
    <path class="cls-4" d="M522.41,112.36c-.88,0-1.58-.29-2.11-.88s-.78-1.35-.78-2.29v-.26c0-.9.27-1.65.81-2.25s1.17-.9,1.91-.9c.85,0,1.5.26,1.94.77s.66,1.2.66,2.06v.72h-4.11l-.02.03c.01.61.17,1.11.46,1.5s.71.59,1.25.59c.39,0,.73-.06,1.03-.17s.55-.26.76-.46l.45.75c-.23.22-.53.4-.9.55s-.82.23-1.34.23ZM522.23,106.69c-.39,0-.72.16-.99.49s-.44.74-.5,1.23v.03h2.94v-.15c0-.45-.12-.83-.36-1.14s-.6-.46-1.08-.46Z"/>
    <path class="cls-4" d="M530.82,107.89h-.87l-.19-.76c-.14-.13-.32-.24-.53-.32s-.45-.12-.72-.12c-.41,0-.71.09-.91.27s-.3.4-.3.65.09.45.26.59.53.27,1.07.39c.8.17,1.4.41,1.79.7s.59.69.59,1.19c0,.56-.23,1.02-.68,1.37s-1.05.52-1.78.52c-.48,0-.91-.06-1.29-.17s-.72-.27-1.03-.48v-1.45s.86,0,.86,0l.22.85c.13.12.31.21.54.26s.46.08.7.08c.41,0,.73-.08.96-.25s.35-.38.35-.65c0-.25-.1-.46-.29-.63s-.56-.31-1.1-.43c-.77-.17-1.35-.4-1.74-.69s-.59-.68-.59-1.17.22-.96.66-1.32,1.01-.54,1.71-.54c.48,0,.91.06,1.29.19s.7.3.96.52l.06,1.4Z"/>
  </g>
  <g>
    <path class="cls-1" d="M20.78,15.08c1.21,0,2.16.31,2.83.94.67.62,1.01,1.45,1.01,2.47s-.34,1.86-1.01,2.48c-.67.62-1.62.93-2.83.93h-2.41v3.36l1.27.22v.98h-4.09v-.98l1.27-.22v-8.96l-1.27-.22v-.99h5.23ZM18.37,20.69h2.41c.77,0,1.35-.21,1.73-.62s.57-.94.57-1.57-.19-1.16-.57-1.58-.96-.63-1.73-.63h-2.41v4.4Z"/>
    <path class="cls-1" d="M25.86,19v-.99h2.65l.15,1.23c.24-.43.54-.77.89-1.02.35-.24.75-.37,1.21-.37.12,0,.24,0,.37.03.13.02.23.04.29.06l-.2,1.43-.88-.05c-.41,0-.75.1-1.02.29-.28.19-.49.46-.64.8v4.85l1.27.22v.98h-4.09v-.98l1.27-.22v-6.04l-1.27-.22Z"/>
    <path class="cls-1" d="M32.33,22.15c0-1.25.34-2.28,1.02-3.09.68-.81,1.6-1.21,2.76-1.21s2.09.4,2.77,1.21c.68.81,1.02,1.84,1.02,3.09v.17c0,1.26-.34,2.29-1.02,3.09-.68.8-1.6,1.2-2.76,1.2s-2.1-.4-2.77-1.21c-.68-.8-1.02-1.83-1.02-3.09v-.17ZM33.87,22.32c0,.9.19,1.64.57,2.22.38.58.94.88,1.68.88s1.28-.29,1.66-.88c.38-.58.57-1.32.57-2.22v-.17c0-.89-.19-1.62-.57-2.21-.38-.59-.94-.88-1.68-.88s-1.3.29-1.67.88c-.38.59-.56,1.33-.56,2.21v.17Z"/>
    <path class="cls-1" d="M43.98,15.96v2.04h1.6v1.14h-1.6v5.13c0,.4.08.67.25.84.16.16.38.24.65.24.14,0,.29-.01.46-.04.17-.02.31-.05.43-.07l.21,1.05c-.15.09-.36.17-.64.23-.28.06-.56.09-.84.09-.62,0-1.12-.19-1.49-.57-.37-.38-.55-.97-.55-1.78v-5.13h-1.34v-1.14h1.34v-2.04h1.54Z"/>
    <path class="cls-1" d="M47.01,22.15c0-1.25.34-2.28,1.02-3.09.68-.81,1.6-1.21,2.76-1.21s2.09.4,2.77,1.21c.68.81,1.02,1.84,1.02,3.09v.17c0,1.26-.34,2.29-1.02,3.09-.68.8-1.6,1.2-2.76,1.2s-2.1-.4-2.77-1.21c-.68-.8-1.02-1.83-1.02-3.09v-.17ZM48.55,22.32c0,.9.19,1.64.57,2.22.38.58.94.88,1.68.88s1.28-.29,1.66-.88c.38-.58.57-1.32.57-2.22v-.17c0-.89-.19-1.62-.57-2.21-.38-.59-.94-.88-1.68-.88s-1.3.29-1.67.88c-.38.59-.56,1.33-.56,2.21v.17Z"/>
    <path class="cls-1" d="M59.77,25.42c.51,0,.96-.16,1.35-.47.39-.31.58-.7.58-1.16h1.38l.02.05c.03.73-.3,1.38-.97,1.94-.67.57-1.46.85-2.36.85-1.23,0-2.17-.4-2.82-1.2-.65-.8-.97-1.81-.97-3.02v-.33c0-1.2.33-2.21.98-3.01.65-.8,1.59-1.21,2.81-1.21.68,0,1.29.11,1.82.34.54.22.99.53,1.34.92l.07,1.88h-1.23l-.34-1.33c-.18-.18-.42-.32-.7-.43-.29-.11-.61-.16-.97-.16-.81,0-1.38.29-1.73.87-.35.58-.52,1.29-.52,2.14v.33c0,.86.17,1.58.52,2.16.34.58.92.86,1.73.86Z"/>
    <path class="cls-1" d="M64.61,22.15c0-1.25.34-2.28,1.02-3.09.68-.81,1.6-1.21,2.76-1.21s2.09.4,2.77,1.21c.68.81,1.02,1.84,1.02,3.09v.17c0,1.26-.34,2.29-1.02,3.09-.68.8-1.6,1.2-2.76,1.2s-2.1-.4-2.77-1.21c-.68-.8-1.02-1.83-1.02-3.09v-.17ZM66.15,22.32c0,.9.19,1.64.57,2.22.38.58.94.88,1.68.88s1.28-.29,1.66-.88c.38-.58.57-1.32.57-2.22v-.17c0-.89-.19-1.62-.57-2.21-.38-.59-.94-.88-1.68-.88s-1.3.29-1.67.88c-.38.59-.56,1.33-.56,2.21v.17Z"/>
    <path class="cls-1" d="M73.21,15.26v-.99h2.81v10.98l1.27.22v.98h-4.09v-.98l1.27-.22v-9.77l-1.27-.22Z"/>
    <path class="cls-1" d="M82.3,16.07v-.99h4.09v.99l-1.27.22v3.93h5.52v-3.93l-1.27-.22v-.99h4.09v.99l-1.27.22v8.96l1.27.22v.98h-4.09v-.98l1.27-.22v-3.82h-5.52v3.82l1.27.22v.98h-4.09v-.98l1.27-.22v-8.96l-1.27-.22Z"/>
    <path class="cls-1" d="M98.59,26.62c-1.18,0-2.11-.39-2.81-1.18-.7-.78-1.04-1.8-1.04-3.05v-.34c0-1.2.36-2.2,1.07-3,.72-.8,1.56-1.2,2.54-1.2,1.14,0,2,.34,2.58,1.03s.88,1.6.88,2.75v.96h-5.48l-.02.04c.02.81.22,1.48.62,2,.4.52.95.79,1.66.79.52,0,.98-.07,1.37-.22.39-.15.73-.35,1.02-.61l.6,1c-.3.29-.7.54-1.2.74-.5.2-1.1.3-1.79.3ZM98.35,19.06c-.52,0-.96.22-1.32.65-.36.44-.59.98-.67,1.64l.02.04h3.9v-.2c0-.6-.16-1.11-.48-1.52-.32-.41-.8-.61-1.44-.61Z"/>
    <path class="cls-1" d="M108.84,26.46c-.05-.23-.08-.43-.11-.62-.03-.18-.04-.36-.05-.55-.3.38-.67.7-1.11.95s-.92.38-1.43.38c-.88,0-1.55-.21-2.01-.64-.46-.43-.69-1.04-.69-1.82s.32-1.42.97-1.86c.65-.43,1.54-.65,2.67-.65h1.59v-.98c0-.49-.16-.89-.47-1.18s-.75-.43-1.3-.43c-.39,0-.73.05-1.02.15-.29.1-.53.23-.71.41l-.16.89h-1.19v-1.64c.39-.31.85-.55,1.4-.74.55-.18,1.14-.28,1.78-.28.96,0,1.73.25,2.33.73.59.49.89,1.19.89,2.1v4.07c0,.11,0,.22,0,.32,0,.1,0,.21.02.31l.62.09v.98h-2.02ZM106.37,25.33c.51,0,.98-.12,1.4-.37.42-.24.72-.54.91-.88v-1.39h-1.64c-.63,0-1.13.15-1.5.44-.37.29-.55.65-.55,1.06,0,.37.11.65.34.85.23.2.58.29,1.04.29Z"/>
    <path class="cls-1" d="M117.84,25.45c-.28.39-.61.68-1.01.88s-.86.3-1.39.3c-1.03,0-1.84-.37-2.42-1.12-.58-.75-.87-1.73-.87-2.95v-.16c0-1.36.29-2.46.87-3.29.58-.83,1.39-1.25,2.43-1.25.5,0,.94.09,1.32.28.38.19.71.45.98.8v-3.45l-1.27-.22v-.99h2.81v10.98l1.27.22v.98h-2.61l-.12-1.01ZM113.69,22.55c0,.85.17,1.53.52,2.05.35.52.89.77,1.62.77.46,0,.84-.1,1.16-.31.31-.21.57-.5.77-.88v-3.92c-.2-.35-.46-.64-.77-.84-.32-.21-.7-.31-1.14-.31-.73,0-1.28.3-1.63.91s-.53,1.4-.53,2.38v.16Z"/>
    <path class="cls-1" d="M125.6,26.62c-1.18,0-2.11-.39-2.81-1.18-.7-.78-1.04-1.8-1.04-3.05v-.34c0-1.2.36-2.2,1.07-3,.72-.8,1.56-1.2,2.54-1.2,1.14,0,2,.34,2.58,1.03s.88,1.6.88,2.75v.96h-5.48l-.02.04c.02.81.22,1.48.62,2,.4.52.95.79,1.66.79.52,0,.98-.07,1.37-.22.39-.15.73-.35,1.02-.61l.6,1c-.3.29-.7.54-1.2.74-.5.2-1.1.3-1.79.3ZM125.37,19.06c-.52,0-.96.22-1.32.65-.36.44-.59.98-.67,1.64l.02.04h3.9v-.2c0-.6-.16-1.11-.48-1.52-.32-.41-.8-.61-1.44-.61Z"/>
    <path class="cls-1" d="M130.34,19v-.99h2.65l.15,1.23c.24-.43.54-.77.89-1.02.35-.24.75-.37,1.21-.37.12,0,.24,0,.37.03.13.02.23.04.29.06l-.2,1.43-.88-.05c-.41,0-.75.1-1.02.29-.28.19-.49.46-.64.8v4.85l1.27.22v.98h-4.09v-.98l1.27-.22v-6.04l-1.27-.22Z"/>
  </g>
</svg>